<svg width="120" height="40" viewBox="0 0 120 40" fill="none" xmlns="http://www.w3.org/2000/svg">
<path fill-rule="evenodd" clip-rule="evenodd" d="M45.7388 12.0938H39.5616C39.1391 12.0935 38.7793 12.4008 38.7135 12.8181L36.2152 28.658C36.1919 28.8068 36.235 28.9582 36.3329 29.0725C36.4309 29.1869 36.574 29.2526 36.7246 29.2523H39.6736C40.0964 29.2525 40.4563 28.9447 40.5217 28.527L41.1955 24.2548C41.2609 23.8374 41.6203 23.5297 42.0428 23.5295H43.9983C48.0673 23.5295 50.4157 21.5605 51.029 17.6585C51.3054 15.9514 51.0407 14.6101 50.2414 13.6708C49.3634 12.6393 47.8063 12.0938 45.7388 12.0938ZM46.4514 17.8789C46.1136 20.0954 44.4201 20.0954 42.7825 20.0954H41.8504L42.5043 15.9559C42.5439 15.7058 42.7595 15.5215 43.0128 15.5215H43.4401C44.5555 15.5215 45.6078 15.5215 46.1515 16.1574C46.4758 16.5367 46.5752 17.1003 46.4514 17.8789ZM61.2454 17.8076H64.2034C64.3537 17.8075 64.4965 17.8734 64.594 17.9877C64.6915 18.1021 64.7339 18.2535 64.7101 18.4019L63.1114 28.5261C63.046 28.9438 62.6861 29.2516 62.2633 29.2514H59.5988C59.4482 29.2512 59.3052 29.185 59.2076 29.0704C59.1099 28.9557 59.0674 28.804 59.0912 28.6553L59.223 27.8334C59.223 27.8334 57.7625 29.5269 55.1287 29.5269C53.5941 29.5269 52.3043 29.0843 51.4029 28.0221C50.4202 26.8669 50.0183 25.2104 50.301 23.478C50.8447 20.0051 53.6366 17.5294 56.9054 17.5294C58.3306 17.5294 59.7586 17.8401 60.399 18.7695L60.6059 19.0694L60.7368 18.242C60.7764 17.9918 60.9921 17.8076 61.2454 17.8076ZM60.0802 23.5647C59.7948 25.2547 58.4535 26.3891 56.7428 26.3891C55.8838 26.3891 55.1974 26.1136 54.7566 25.5916C54.3194 25.0731 54.1532 24.3352 54.2923 23.5132C54.5588 21.8378 55.9226 20.6663 57.6072 20.6663C58.4472 20.6663 59.13 20.9454 59.5798 21.4719C60.0305 22.0039 60.2094 22.7464 60.0802 23.5647ZM76.985 17.8076H79.9575C80.149 17.8076 80.3247 17.9141 80.4135 18.0838C80.5022 18.2536 80.4894 18.4586 80.3802 18.6159L70.4935 32.8869C70.3331 33.1181 70.0694 33.2558 69.7881 33.2554H66.8192C66.6265 33.2555 66.45 33.148 66.3615 32.9769C66.2731 32.8058 66.2876 32.5996 66.3992 32.4425L69.4774 28.0971L66.2032 18.4886C66.1495 18.3311 66.1751 18.1574 66.2721 18.0223C66.3691 17.8871 66.5254 17.8071 66.6918 17.8076H69.6128C69.9924 17.8077 70.3271 18.0565 70.4366 18.4199L72.1744 24.2232L76.2741 18.1842C76.4343 17.949 76.7004 17.808 76.985 17.8076Z" fill="#151515"/>
<path fill-rule="evenodd" clip-rule="evenodd" d="M109.215 28.6589L111.751 12.5291C111.79 12.2791 112.005 12.0946 112.258 12.0938H115.112C115.263 12.094 115.406 12.1601 115.503 12.2745C115.601 12.389 115.643 12.5404 115.62 12.689L113.12 28.5279C113.055 28.9461 112.695 29.2532 112.272 29.2532H109.723C109.572 29.2532 109.43 29.1874 109.332 29.0731C109.234 28.9588 109.192 28.8074 109.215 28.6589ZM89.7995 12.0947H83.6214C83.1993 12.0948 82.8399 12.402 82.7742 12.819L80.2759 28.6589C80.2523 28.8074 80.295 28.9588 80.3927 29.0731C80.4903 29.1874 80.6331 29.2532 80.7835 29.2532H83.9538C84.2493 29.2528 84.5005 29.0375 84.5463 28.7456L85.2553 24.2557C85.3207 23.8383 85.6801 23.5306 86.1026 23.5304H88.0572C92.1271 23.5304 94.4746 21.5614 95.0888 17.6594C95.3661 15.9523 95.0996 14.611 94.3002 13.6717C93.4232 12.6402 91.867 12.0947 89.7995 12.0947ZM90.5121 17.8798C90.1752 20.0963 88.4817 20.0963 86.8432 20.0963H85.912L86.5668 15.9568C86.6056 15.7066 86.8212 15.5221 87.0744 15.5224H87.5017C88.6162 15.5224 89.6694 15.5224 90.2132 16.1583C90.5374 16.5376 90.6359 17.1012 90.5121 17.8798ZM105.307 17.8085H108.263C108.414 17.8083 108.557 17.874 108.655 17.9882C108.753 18.1025 108.796 18.2539 108.774 18.4028L107.174 28.527C107.109 28.9444 106.749 29.2521 106.327 29.2523H103.663C103.512 29.2526 103.369 29.1867 103.271 29.072C103.173 28.9572 103.13 28.8052 103.154 28.6562L103.286 27.8343C103.286 27.8343 101.825 29.5278 99.1912 29.5278C97.6566 29.5278 96.3686 29.0852 95.4654 28.023C94.4827 26.8678 94.0826 25.2113 94.3644 23.4789C94.9081 20.006 97.6991 17.5303 100.968 17.5303C102.393 17.5303 103.82 17.841 104.461 18.7704L104.668 19.0703L104.799 18.2429C104.838 17.9925 105.054 17.8078 105.307 17.8085ZM104.14 23.5656C103.856 25.2556 102.513 26.39 100.803 26.39C99.9454 26.39 99.2572 26.1145 98.8164 25.5925C98.3792 25.074 98.2148 24.3361 98.3521 23.5141C98.6204 21.8387 99.9824 20.6672 101.667 20.6672C102.507 20.6672 103.19 20.9463 103.64 21.4728C104.092 22.0048 104.271 22.7473 104.14 23.5656Z" fill="#151515"/>
<path d="M10.5625 32.3296L11.0349 29.3291L9.98265 29.3047H4.95801L8.44988 7.16394C8.47136 7.02412 8.59203 6.92113 8.73349 6.92188H17.2057C20.0184 6.92188 21.9594 7.50717 22.9728 8.6624C23.4479 9.20433 23.7505 9.77065 23.8968 10.3939C24.0504 11.0478 24.0531 11.8291 23.9032 12.782L23.8923 12.8516V13.4621L24.3674 13.7313C24.7301 13.9151 25.0561 14.1636 25.3294 14.4647C25.7358 14.9281 25.9987 15.517 26.1097 16.2152C26.2245 16.9332 26.1865 17.7877 25.9987 18.755C25.7819 19.8678 25.4314 20.837 24.9581 21.63C24.5405 22.3404 23.9791 22.9557 23.3097 23.4365C22.6811 23.8827 21.9341 24.2214 21.0896 24.4381C20.2713 24.6513 19.3383 24.7588 18.3149 24.7588H17.6556C17.1841 24.7588 16.7261 24.9286 16.3667 25.233C16.0077 25.5406 15.7695 25.9657 15.6947 26.4325L15.645 26.7025L14.8104 31.9909L14.7725 32.1851C14.7625 32.2465 14.7454 32.2772 14.7201 32.298C14.6956 32.318 14.665 32.3292 14.6334 32.3296H10.5625Z" fill="#253B80"/>
<path d="M24.8179 12.9219C24.7926 13.0836 24.7637 13.2488 24.7312 13.4186C23.6139 19.155 19.7915 21.1367 14.9095 21.1367H12.4239C11.8268 21.1367 11.3237 21.5703 11.2307 22.1592L9.95805 30.2304L9.59766 32.5183C9.5686 32.7019 9.6214 32.8891 9.74213 33.0305C9.86287 33.1719 10.0395 33.2534 10.2254 33.2535H14.634C15.1561 33.2535 15.5996 32.8741 15.6818 32.3593L15.7251 32.1353L16.5552 26.8677L16.6085 26.5786C16.6898 26.062 17.1342 25.6826 17.6562 25.6826H18.3156C22.5869 25.6826 25.9307 23.9485 26.908 18.9301C27.3162 16.8337 27.1049 15.0833 26.0246 13.8522C25.6822 13.4714 25.2733 13.1561 24.8179 12.9219V12.9219Z" fill="#636363"/>
<path d="M23.6489 12.456C23.2922 12.3528 22.9293 12.2723 22.5623 12.2149C21.8373 12.1035 21.1046 12.05 20.3711 12.055H13.7306C13.2084 12.0546 12.764 12.435 12.6838 12.951L11.2711 21.8984L11.2305 22.1594C11.3214 21.5708 11.8281 21.1366 12.4236 21.1369H14.9093C19.7912 21.1369 23.6137 19.1544 24.731 13.4189C24.7644 13.2491 24.7924 13.0838 24.8177 12.9221C24.5229 12.7675 24.2156 12.6379 23.8991 12.5346C23.8161 12.5071 23.7327 12.4809 23.6489 12.456Z" fill="#393939"/>
<path d="M12.6835 12.9539C12.7631 12.4377 13.2081 12.0572 13.7304 12.0588H20.3709C21.1576 12.0588 21.8919 12.1103 22.5621 12.2187C23.0156 12.29 23.4629 12.3966 23.8998 12.5375C24.2295 12.6468 24.5357 12.776 24.8184 12.925C25.1508 10.8052 24.8157 9.36181 23.6695 8.05484C22.4059 6.616 20.1252 6 17.2069 6H8.73463C8.1385 6 7.62999 6.43355 7.53786 7.02335L4.00896 29.3917C3.97569 29.6019 4.03604 29.8161 4.17414 29.978C4.31223 30.1399 4.51424 30.2333 4.72702 30.2335H9.9576L11.2709 21.9013L12.6835 12.9539Z" fill="#151515"/>
<rect opacity="0.01" width="120" height="40" fill="white"/>
</svg>
