<svg width="86" height="40" viewBox="0 0 86 40" fill="none" xmlns="http://www.w3.org/2000/svg">
<path d="M36.5862 31.6636H30.1504L34.1758 6.77344H40.6113L36.5862 31.6636Z" fill="#151515"/>
<path d="M59.917 7.37998C58.6476 6.87637 56.6342 6.32031 54.1446 6.32031C47.789 6.32031 43.3135 9.70943 43.286 14.5549C43.2332 18.1298 46.4904 20.1154 48.9265 21.3074C51.4164 22.5254 52.2628 23.3205 52.2628 24.4062C52.2375 26.0736 50.2508 26.8423 48.3979 26.8423C45.8284 26.8423 44.4516 26.446 42.3594 25.5183L41.5119 25.1206L40.6113 30.7079C42.1208 31.3956 44.9017 32.0058 47.789 32.0326C54.5419 32.0326 58.9383 28.6959 58.9904 23.5323C59.016 20.6989 57.2961 18.5278 53.5882 16.7537C51.3372 15.6149 49.9587 14.847 49.9587 13.6817C49.9851 12.6224 51.1246 11.5374 53.6656 11.5374C55.7578 11.4842 57.2951 11.9871 58.4596 12.4904L59.0417 12.7547L59.917 7.37998Z" fill="#151515"/>
<path fill-rule="evenodd" clip-rule="evenodd" d="M71.437 6.77344H76.4151L81.6072 31.6632H75.6483C75.6483 31.6632 75.0651 28.8034 74.8803 27.9296H66.6173C66.3783 28.5912 65.2666 31.6632 65.2666 31.6632H58.5137L68.0732 8.83858C68.7356 7.22321 69.9019 6.77344 71.437 6.77344ZM71.0404 15.8818C71.0404 15.8818 69.0009 21.416 68.4709 22.8459H73.8203C73.5557 21.6015 72.3369 15.6436 72.3369 15.6436L71.8871 13.4989C71.6977 14.0512 71.4238 14.8105 71.2391 15.3226C71.1138 15.6697 71.0296 15.9033 71.0404 15.8818Z" fill="#151515"/>
<path d="M24.7752 6.77344L18.4724 23.7461L17.7837 20.3039C16.6184 16.332 12.9639 12.0165 8.88574 9.8708L14.6589 31.6372H21.4646L31.5805 6.77344H24.7752V6.77344Z" fill="#151515"/>
<path d="M12.6197 6.77344H2.26511L2.15918 7.27635C10.2364 9.34185 15.5858 14.3207 17.7836 20.3049L15.5327 8.86568C15.1621 7.276 14.0232 6.82588 12.6197 6.77344Z" fill="#151515"/>
<path opacity="0.01" fill-rule="evenodd" clip-rule="evenodd" d="M0 0H86V40H0V0Z" fill="white"/>
</svg>
